<svg xmlns="http://www.w3.org/2000/svg" width="114" height="114" viewBox="0 0 114 114">
  <g id="Gruppe_154" data-name="Gruppe 154" transform="translate(-876 -2901)">
    <g id="Gruppe_105" data-name="Gruppe 105" transform="translate(31 -115)">
      <g id="Ellipse_18" data-name="Ellipse 18" transform="translate(845 3016)" fill="#fff" stroke="#6fb749" stroke-width="2">
        <circle cx="57" cy="57" r="57" stroke="none"/>
        <circle cx="57" cy="57" r="56" fill="none"/>
      </g>
    </g>
    <g id="Gruppe_153" data-name="Gruppe 153" transform="translate(811.106 2838.023)">
      <path id="Pfad_96" data-name="Pfad 96" d="M188.472,138.683" transform="translate(-51.818 -29.352)" fill="none" stroke="#6fb749" stroke-linecap="round" stroke-linejoin="round" stroke-width="2"/>
      <path id="Pfad_97" data-name="Pfad 97" d="M192.483,138.683" transform="translate(-53.97 -29.352)" fill="none" stroke="#6fb749" stroke-linecap="round" stroke-linejoin="round" stroke-width="2"/>
      <path id="Pfad_98" data-name="Pfad 98" d="M96.613,176.994,93.7,178.571l.557-3.339-2.36-2.365,3.261-.487,1.458-3.038,1.458,3.038,3.261.487-2.36,2.365.557,3.339Z" transform="translate(0 -45.802)" fill="none" stroke="#4c4193" stroke-linecap="round" stroke-linejoin="round" stroke-width="2"/>
      <path id="Pfad_99" data-name="Pfad 99" d="M123.527,176.994l-2.917,1.576.557-3.339-2.36-2.365,3.261-.487,1.459-3.038,1.458,3.038,3.261.487-2.36,2.365.557,3.339Z" transform="translate(-14.44 -45.802)" fill="none" stroke="#4c4193" stroke-linecap="round" stroke-linejoin="round" stroke-width="2"/>
      <path id="Pfad_100" data-name="Pfad 100" d="M150.441,176.994l-2.917,1.576.557-3.339-2.36-2.365,3.261-.487,1.458-3.038,1.458,3.038,3.261.487-2.36,2.365.557,3.339Z" transform="translate(-28.881 -45.802)" fill="none" stroke="#4c4193" stroke-linecap="round" stroke-linejoin="round" stroke-width="2"/>
      <path id="Pfad_101" data-name="Pfad 101" d="M177.356,176.994l-2.917,1.576.557-3.339-2.36-2.365,3.261-.487,1.459-3.038,1.458,3.038,3.261.487-2.36,2.365.557,3.339Z" transform="translate(-43.321 -45.802)" fill="none" stroke="#4c4193" stroke-linecap="round" stroke-linejoin="round" stroke-width="2"/>
      <path id="Pfad_102" data-name="Pfad 102" d="M204.27,176.994l-2.917,1.576.557-3.339-2.36-2.365,3.261-.487,1.458-3.038,1.458,3.038,3.261.487-2.36,2.365.557,3.339Z" transform="translate(-57.762 -45.802)" fill="none" stroke="#4c4193" stroke-linecap="round" stroke-linejoin="round" stroke-width="2"/>
      <ellipse id="Ellipse_41" data-name="Ellipse 41" cx="8.768" cy="9.012" rx="8.768" ry="9.012" transform="translate(112.914 83.977)" fill="none" stroke="#6fb749" stroke-linecap="round" stroke-linejoin="round" stroke-width="2"/>
      <path id="Rechteck_33" data-name="Rechteck 33" d="M12.762,0h8.621A12.762,12.762,0,0,1,34.144,12.762v0a0,0,0,0,1,0,0H0a0,0,0,0,1,0,0v0A12.762,12.762,0,0,1,12.762,0Z" transform="translate(104.61 104.99)" fill="none" stroke="#6fb749" stroke-linecap="round" stroke-linejoin="round" stroke-width="2"/>
      <line id="Linie_6" data-name="Linie 6" x2="42.939" transform="translate(100.212 138.966)" fill="none" stroke="#6fb749" stroke-linecap="round" stroke-linejoin="round" stroke-width="2"/>
      <line id="Linie_7" data-name="Linie 7" x2="42.939" transform="translate(100.212 145.484)" fill="none" stroke="#6fb749" stroke-linecap="round" stroke-linejoin="round" stroke-width="2"/>
      <line id="Linie_8" data-name="Linie 8" x2="42.939" transform="translate(100.212 152.003)" fill="none" stroke="#6fb749" stroke-linecap="round" stroke-linejoin="round" stroke-width="2"/>
    </g>
  </g>
</svg>
