<svg xmlns="http://www.w3.org/2000/svg" viewBox="0 0 265.54 83.94"><defs><style>.cls-1{fill:#262626;}.cls-2{fill:#ff6040;}.cls-3{fill:#ffea00;}.cls-4{fill:#a8a7a7;}</style></defs><g id="Ebene_2" data-name="Ebene 2"><g id="Ebene_1-2" data-name="Ebene 1"><rect class="cls-1" x="78.5" width="20.45" height="20.45"/><rect class="cls-2" x="78.5" y="22.64" width="20.45" height="20.45"/><rect class="cls-3" x="78.5" y="45.29" width="20.45" height="20.45"/><rect class="cls-4" x="78.5" y="67.99" width="20.45" height="10.22"/><rect class="cls-2" x="47.27" y="21.77" width="20.45" height="20.45" transform="translate(-4.59 10.21) rotate(-9.76)"/><rect class="cls-3" x="51.11" y="44.09" width="20.45" height="20.45" transform="translate(-8.32 11.18) rotate(-9.76)"/><rect class="cls-4" x="54.09" y="66.54" width="20.45" height="10.22" transform="translate(-11.21 11.93) rotate(-9.76)"/><rect class="cls-3" x="22.16" y="43.44" width="20.45" height="20.45" transform="translate(-17.35 15.51) rotate(-21.4)"/><rect class="cls-4" x="28.57" y="64.93" width="20.45" height="10.22" transform="translate(-22.88 18.98) rotate(-21.4)"/><rect class="cls-4" x="1.04" y="63.61" width="20.45" height="10.22" transform="translate(-38.62 20.12) rotate(-36.44)"/><path class="cls-1" d="M121.08,16V1.24h4.12c2.31,0,3.49.94,3.49,3.53,0,1.78-.29,3-2.15,3.52v0c2,.41,2.46,1.7,2.46,3.56,0,2.66-1.27,4.11-3.74,4.11Zm3.83-8.2c1.88,0,2.47-1.29,2.47-3,0-2.45-1.35-2.49-2.39-2.49h-2.6V7.8Zm-2.52,7.09h2.09c2.17,0,3.21-.73,3.21-2.9,0-1.31-.39-3.09-2.64-3.09h-2.66Z"/><path class="cls-1" d="M137.67,5.67V16H136.6V14.85h0A3.09,3.09,0,0,1,134,16.2c-2.13,0-2.72-1.55-2.72-3.23V5.67h1.22v7.1c0,.28-.06,2.45,1.72,2.45A2.3,2.3,0,0,0,136.44,13V5.67Z"/><path class="cls-1" d="M141.47,16h-1.23V5.67h1.23V6.94h0A3,3,0,0,1,144,5.47c2.56,0,2.83,1.9,2.83,3.25V16H145.6V8.78c0-1.21-.47-2.33-1.9-2.33-1.11,0-2.23.76-2.23,3.07Z"/><path class="cls-1" d="M154.74,14.69l0,0a2.88,2.88,0,0,1-2.62,1.49c-3,0-3.15-3-3.15-5.37,0-2,0-5.36,3.17-5.36a3.19,3.19,0,0,1,2.49,1.22l0,0V1.24h1.22V14A11.73,11.73,0,0,0,156,16H154.8Zm-.06-2.92V9.93c0-.62,0-3.48-2.31-3.48s-2.21,2-2.21,4.42c0,3.84.92,4.35,2.25,4.35C153.57,15.22,154.68,14.28,154.68,11.77Z"/><path class="cls-1" d="M160.21,11.09v.8c0,1.43.39,3.33,2.33,3.33a2.12,2.12,0,0,0,2.27-2.37h1.29c-.14,2.49-1.49,3.35-3.56,3.35-1.78,0-3.56-.71-3.56-3.84V9.82c0-3,1.25-4.35,3.56-4.35,3.56,0,3.56,2.55,3.56,5.62Zm4.66-1c0-2.29-.37-3.66-2.33-3.66s-2.33,1.37-2.33,3.66Z"/><path class="cls-1" d="M171.07,16.2c-2.23,0-3.11-1.08-3.09-3.27h1.25c0,1.41.32,2.35,1.9,2.35a1.61,1.61,0,0,0,1.76-1.82c0-2.7-4.65-2-4.65-5.42,0-1.9,1.31-2.57,3.11-2.57,2.05,0,2.7,1.41,2.7,3h-1.2c-.07-1.31-.41-2-1.8-2a1.47,1.47,0,0,0-1.58,1.49c0,2.58,4.64,1.88,4.64,5.34C174.11,15.22,173,16.2,171.07,16.2Z"/><path class="cls-1" d="M178.19,14.44h0l2.51-8.77h1.19L178.86,16h-1.41L174.39,5.67h1.32Z"/><path class="cls-1" d="M184.34,11.09v.8c0,1.43.39,3.33,2.33,3.33a2.11,2.11,0,0,0,2.27-2.37h1.29c-.14,2.49-1.49,3.35-3.56,3.35-1.78,0-3.55-.71-3.55-3.84V9.82c0-3,1.24-4.35,3.55-4.35,3.56,0,3.56,2.55,3.56,5.62Zm4.66-1c0-2.29-.36-3.66-2.33-3.66s-2.33,1.37-2.33,3.66Z"/><path class="cls-1" d="M193.77,7.06h0a3.13,3.13,0,0,1,2.84-1.59V6.72a2.46,2.46,0,0,0-2.88,2.63V16h-1.23V5.67h1.23Z"/><path class="cls-1" d="M198.06,16a6,6,0,0,0,.12-1V1.24h1.23v5.6l0,0a2.85,2.85,0,0,1,2.62-1.41c3.35,0,3.09,3.51,3.09,5.36,0,2.27-.19,5.37-3.19,5.37a2.72,2.72,0,0,1-2.6-1.45h0V16Zm3.54-.78c2.27,0,2.33-1.94,2.33-4.35s-.06-4.42-2.33-4.42c-2,0-2.23,2.68-2.23,4.23S199.37,15.22,201.6,15.22Z"/><path class="cls-1" d="M212.56,14.73h0a3.33,3.33,0,0,1-2.93,1.47,2.72,2.72,0,0,1-2.84-3c0-3.62,3.64-3.26,5.73-3.42V8.88c0-1.51-.45-2.43-2.09-2.43-1.13,0-2,.55-2,1.78h-1.31c.1-2,1.63-2.76,3.43-2.76,1,0,3.21.1,3.21,2.74V13.4a22.58,22.58,0,0,0,.12,2.6h-1.26Zm-.08-4c-1.76.06-4.42-.14-4.42,2.38,0,1.16.59,2.12,1.86,2.12a2.66,2.66,0,0,0,2.56-2.62Z"/><path class="cls-1" d="M218.38,16h-1.23V5.67h1.23V6.94h0a3,3,0,0,1,2.49-1.47c2.56,0,2.82,1.9,2.82,3.25V16h-1.22V8.78c0-1.21-.47-2.33-1.91-2.33-1.1,0-2.22.76-2.22,3.07Z"/><path class="cls-1" d="M231.64,14.69l0,0A2.87,2.87,0,0,1,229,16.2c-3,0-3.15-3-3.15-5.37,0-2,0-5.36,3.17-5.36a3.19,3.19,0,0,1,2.49,1.22l0,0V1.24h1.23V14a13.27,13.27,0,0,0,.12,2.05h-1.18Zm-.06-2.92V9.93c0-.62,0-3.48-2.31-3.48s-2.2,2-2.2,4.42c0,3.84.92,4.35,2.24,4.35C230.48,15.22,231.58,14.28,231.58,11.77Z"/><path class="cls-1" d="M127.53,24.32a8.17,8.17,0,0,1,4.23,1,5.62,5.62,0,0,1,2.49,3.87,29,29,0,0,1,.52,6.65c0,4-.37,6.23-1.41,7.85-1.38,2.15-4.14,2.79-7.27,2.79H121V24.32ZM126.09,44c2.42,0,4.45-.31,5.24-2.58a20.34,20.34,0,0,0,.62-6.34c0-3.31-.22-5.34-.89-6.57-.8-1.44-2.33-1.74-4-1.74h-3.16V44Z"/><path class="cls-1" d="M149.83,33.09a11.77,11.77,0,0,1,.8,5.16v1.28h-8.74v.37c0,3.59,1,4.88,3,4.88,1.69,0,2.61-1,2.85-3h2.76c-.09,3.38-1.93,5.06-5.55,5.06a6.32,6.32,0,0,1-3.31-.73c-1.72-1.08-2.45-2.67-2.45-7.55,0-5.79,1.65-8,5.73-8C147,30.58,148.85,31.16,149.83,33.09Zm-1.9,4.54v-.46c0-3.28-1.05-4.6-3.07-4.6s-3,1.51-3,4.91v.15Z"/><path class="cls-1" d="M157.43,31V42.32a2.44,2.44,0,0,0,2.55,2.4c1.81,0,2.91-1.57,2.91-3.44V31h2.64V44.47c0,.68.06,1.35.06,2H163V44.59h-.09a4.36,4.36,0,0,1-4,2.12c-2.7,0-4-1.53-4-4.17V31Z"/><path class="cls-1" d="M172.25,31h3.29v2h-3.29v9.42c0,1.9.83,2.2,2.21,2.2a4.59,4.59,0,0,0,1.14-.12V46.4a13.83,13.83,0,0,1-2.58.22c-2.7,0-3.37-1-3.37-3.07V33H167V31h2.61V28l2.6-1.13Z"/><path class="cls-1" d="M187.56,34.87v.31H185V35c0-1.44-.89-2.27-2.6-2.27s-2.46.74-2.46,2c0,1.47,1.11,1.62,5.46,3.86a4,4,0,0,1,2.36,3.77c0,2.86-2,4.42-5.43,4.42S177,45.18,177,42v-.25h2.7V42c0,1.87.89,2.73,2.6,2.73s2.82-.83,2.82-2.21a1.91,1.91,0,0,0-1-1.78c-.83-.46-2-1-2.88-1.5-.61-.31-1.26-.65-1.87-1a3.56,3.56,0,0,1-2-3.25c0-2.73,2.08-4.2,5.24-4.2S187.56,32.2,187.56,34.87Z"/><path class="cls-1" d="M202.12,35.61V36h-2.6c0-2.27-.77-3.22-2.46-3.22-2,0-3,1.44-3,5.94,0,4.08.86,6,2.88,6,1.66,0,2.67-1.13,2.67-3.34h2.64c0,3.44-2.09,5.46-5.31,5.46-2.14,0-3.65-.7-4.57-2.45-.64-1.23-.92-2.76-.92-5.49,0-6.14,1.54-8.16,5.83-8.16C200.44,30.67,202.12,32.39,202.12,35.61Z"/><path class="cls-1" d="M209.3,24.32V33a4.15,4.15,0,0,1,4.14-2.3c2.85,0,4.23,1.56,4.23,4.69v11.1H215V36.07c0-2.39-.83-3.38-2.55-3.38-2.21,0-3.16,1.72-3.16,3.75v10H206.7V24.32Z"/><path class="cls-1" d="M232.46,33.09a11.8,11.8,0,0,1,.79,5.16v1.28h-8.74v.37c0,3.59,1,4.88,3,4.88,1.68,0,2.6-1,2.85-3h2.76c-.09,3.38-1.93,5.06-5.55,5.06a6.32,6.32,0,0,1-3.31-.73c-1.72-1.08-2.46-2.67-2.46-7.55,0-5.79,1.66-8,5.74-8C229.67,30.58,231.48,31.16,232.46,33.09Zm-1.9,4.54v-.46c0-3.28-1.05-4.6-3.07-4.6s-3,1.51-3,4.91v.15Z"/><path class="cls-1" d="M135.18,59v.54h-3.27V59.2c0-2.69-1.19-4.12-3.71-4.12s-3.89,1.29-3.89,3.54,1.77,3.58,4.5,4.81a18.42,18.42,0,0,1,3,1.73c3.07,2.15,3.54,4,3.54,6,0,4.12-3.06,6.61-7.59,6.61-4.16,0-7.26-1.91-7.26-7v-1h3.1v.72c0,3.27,2.15,4.5,4.22,4.5,2.46,0,4.33-1.43,4.33-3.92,0-1.4-.82-2.83-2.86-3.88-4-2-5.52-2.9-6.64-4.16a6.15,6.15,0,0,1-1.57-4.23c0-4,2.79-6.54,7.36-6.54C132.83,52.35,135.18,54.6,135.18,59Z"/><path class="cls-1" d="M143.22,60.19h3.65V62.4h-3.65V72.86c0,2.12.92,2.46,2.46,2.46a5.07,5.07,0,0,0,1.26-.14v2.15a16,16,0,0,1-2.86.24c-3,0-3.75-1.13-3.75-3.41V62.4h-2.9V60.19h2.9V56.88l2.89-1.26Z"/><path class="cls-1" d="M161,64.92v9.14a19.08,19.08,0,0,0,.34,3.33h-2.9l-.13-2.48h-.07a4.28,4.28,0,0,1-4.4,2.86c-3,0-4.67-1.87-4.67-5.32,0-3.88,2-5.72,7.84-5.72h1.19V65.27c0-2-.71-3.34-2.82-3.34a2.48,2.48,0,0,0-2.8,2.52c0,.27,0,.41,0,.58h-3c.07-3.55,1.95-5.22,5.83-5.22S161,61.69,161,64.92Zm-6.24,10.53c2.32,0,3.48-2.14,3.48-5.45a9.78,9.78,0,0,0,0-1.16c-.24,0-.71,0-1.09,0-3.37,0-5.11.82-5.11,3.51C152,74.33,153,75.45,154.74,75.45Z"/><path class="cls-1" d="M173.89,60.05V63a9.29,9.29,0,0,0-1.39-.1,3.48,3.48,0,0,0-3.85,3.74v10.8h-2.93v-15c0-.37,0-1.09-.07-2.21h2.93v2.66c.88-2.12,1.87-2.87,4.43-2.87A3.34,3.34,0,0,1,173.89,60.05Z"/><path class="cls-1" d="M181.94,60.19h3.64V62.4h-3.64V72.86c0,2.12.92,2.46,2.45,2.46a5,5,0,0,0,1.26-.14v2.15a16,16,0,0,1-2.86.24c-3,0-3.75-1.13-3.75-3.41V62.4h-2.9V60.19H179V56.88l2.9-1.26Z"/><path class="cls-1" d="M191,60.19V72.8a2.7,2.7,0,0,0,2.83,2.65c2,0,3.24-1.74,3.24-3.81V60.19H200v15c0,.75.07,1.5.07,2.21h-2.9V75.32h-.1a4.87,4.87,0,0,1-4.5,2.35c-3,0-4.46-1.71-4.46-4.64V60.19Z"/><path class="cls-1" d="M216.28,61.79c1,1.29,1.43,3.37,1.43,6.51a20.36,20.36,0,0,1-.54,5.79,4.75,4.75,0,0,1-5,3.68,4.19,4.19,0,0,1-3.82-2.11v8.28h-3V60.19h2.93v2.08a4,4,0,0,1,3.81-2.39A4.85,4.85,0,0,1,216.28,61.79Zm-7.87,10.94c.38,1.67,1.37,2.79,3.1,2.79,2.22,0,3.31-1.91,3.31-5.93v-2a10.9,10.9,0,0,0-.31-2.73c-.48-1.67-1.4-2.62-3.2-2.62A2.6,2.6,0,0,0,209,63.49c-.58.89-.88,2.42-.88,5.11A16.71,16.71,0,0,0,208.41,72.73Z"/><path class="cls-1" d="M233,64.52v.34h-2.87v-.24c0-1.6-1-2.52-2.89-2.52-1.74,0-2.73.81-2.73,2.21,0,1.64,1.23,1.81,6.07,4.29a4.41,4.41,0,0,1,2.62,4.2c0,3.16-2.22,4.9-6,4.9s-5.9-1.74-5.9-5.25v-.27h3v.24c0,2.08,1,3,2.9,3s3.13-.92,3.13-2.45a2.12,2.12,0,0,0-1.16-2c-.92-.51-2.21-1.16-3.2-1.67-.68-.34-1.39-.71-2.08-1.12a4,4,0,0,1-2.18-3.61c0-3,2.32-4.67,5.83-4.67S233,61.55,233,64.52Z"/><path class="cls-1" d="M242.93,72.24V73c0,1.44.39,3.34,2.33,3.34A2.12,2.12,0,0,0,247.53,74h1.29c-.14,2.49-1.49,3.35-3.56,3.35-1.78,0-3.56-.72-3.56-3.85V71c0-3,1.25-4.36,3.56-4.36,3.56,0,3.56,2.56,3.56,5.63Zm4.66-1c0-2.29-.37-3.66-2.33-3.66s-2.33,1.37-2.33,3.66Z"/><path class="cls-1" d="M251.31,75.59h1.52v1.55h-1.52Z"/><path class="cls-1" d="M263.09,62.38h1.27l-4.09,14.76h-1.64l-4.11-14.76h1.39l3.5,13.21h0Z"/><path class="cls-1" d="M264,75.59h1.51v1.55H264Z"/></g></g></svg>