<svg xmlns="http://www.w3.org/2000/svg" width="30.307" height="30.307" viewBox="0 0 30.307 30.307"><defs><style>.a{fill:#4c4193;}</style></defs><path class="a" d="M29.8,13.133h-.6l-.929-4.647a.505.505,0,0,0-.5-.4H21.72c-.017,0-.031.009-.048.011a.494.494,0,0,0-.137.031.539.539,0,0,0-.06.029.514.514,0,0,0-.113.088c-.01.01-.024.015-.033.026s-.006.015-.011.021a.488.488,0,0,0-.068.135.534.534,0,0,0-.021.051l0,.012L20.3,13.133H13.133v-.505a1.515,1.515,0,0,0-1.515-1.515V10.1h4.041a1.515,1.515,0,0,0,1.515-1.515V1.515A1.515,1.515,0,0,0,15.659,0H3.536A1.515,1.515,0,0,0,2.02,1.515V8.587A1.515,1.515,0,0,0,3.536,10.1H7.577v1.01a1.515,1.515,0,0,0-1.515,1.515v.505H.505A.505.505,0,0,0,0,13.638V29.8a.505.505,0,0,0,.505.505h2.02a.505.505,0,0,0,.505-.505V26.266H27.277V29.8a.505.505,0,0,0,.505.505H29.8a.505.505,0,0,0,.505-.505V13.638A.505.505,0,0,0,29.8,13.133ZM27.368,9.092l.808,4.041H23.145l-.808-4.041Zm-5.7,2.358.421,1.683h-.758ZM3.031,1.515a.505.505,0,0,1,.505-.505H15.659a.505.505,0,0,1,.505.505V7.072H3.031Zm0,7.072V8.082H16.164v.505a.505.505,0,0,1-.505.505H3.536A.505.505,0,0,1,3.031,8.587ZM8.587,10.1h2.02v1.01H8.587ZM7.072,12.628a.505.505,0,0,1,.505-.505h4.041a.505.505,0,0,1,.505.505v.505H7.072ZM3.031,25.256V16.164H27.277v9.092ZM29.3,29.3h-1.01V15.659a.505.505,0,0,0-.505-.505H2.526a.505.505,0,0,0-.505.505V29.3H1.01V14.143H29.3Zm0,0"/></svg>