<svg xmlns="http://www.w3.org/2000/svg" xmlns:xlink="http://www.w3.org/1999/xlink" width="29.997" height="30" viewBox="0 0 29.997 30">
  <defs>
    <clipPath id="clip-path">
      <path id="Pfad_89" data-name="Pfad 89" d="M0,20.571H30v-30H0Z" transform="translate(0 9.429)" fill="#4c4193"/>
    </clipPath>
  </defs>
  <g id="Gruppe_128" data-name="Gruppe 128" clip-path="url(#clip-path)">
    <g id="Gruppe_127" data-name="Gruppe 127" transform="translate(-0.001 0.003)">
      <path id="Pfad_88" data-name="Pfad 88" d="M20.569,16.245a1.1,1.1,0,0,0-.064-.449c-.15-.445-1.193-.916-1.619-1.129-1.215-.681-2.45-1.339-3.643-2.043-.554-.344-1.234-.98-1.9-.98-1.3,0-3.194,3.856-4.346,3.856a4.579,4.579,0,0,1-1.833-.834A21.2,21.2,0,0,1-1.544,5.955a4.571,4.571,0,0,1-.83-1.833c0-1.152,3.856-3.048,3.856-4.346,0-.662-.64-1.343-.98-1.9C-.2-3.313-.863-4.551-1.544-5.763c-.213-.426-.684-1.47-1.129-1.619a1.1,1.1,0,0,0-.449-.064,9.483,9.483,0,0,0-2.959.659,5.6,5.6,0,0,0-2.259,2.6A8.121,8.121,0,0,0-9.428-.224a16.457,16.457,0,0,0,1.47,5.581A19.915,19.915,0,0,0-6.189,9.086,35.984,35.984,0,0,0,4.037,19.312a19.718,19.718,0,0,0,3.729,1.769,16.365,16.365,0,0,0,5.581,1.47,8.162,8.162,0,0,0,3.964-1.085,5.615,5.615,0,0,0,2.6-2.259,9.438,9.438,0,0,0,.662-2.962" transform="translate(9.428 7.446)" fill="#4c4193"/>
    </g>
  </g>
</svg>
