<svg xmlns="http://www.w3.org/2000/svg" width="14" height="15" fill="none" viewBox="0 0 14 15">
  <path fill="#4C4193" d="M9.188 5.125C8.805 2.69 7.848.969 6.78.969c-1.093 0-2.023 1.722-2.433 4.156h4.84zM4.155 7.75c0 .629.028 1.203.082 1.75h5.059c.055-.547.082-1.121.082-1.75 0-.602-.027-1.176-.082-1.75H4.238a18.307 18.307 0 00-.082 1.75zm8.86-2.625a6.75 6.75 0 00-4.32-3.856c.683.93 1.12 2.325 1.367 3.856h2.953zM4.84 1.269A6.75 6.75 0 00.52 5.125h2.953c.246-1.531.683-2.926 1.367-3.856zM13.316 6h-3.144c.055.575.11 1.177.11 1.75 0 .602-.055 1.177-.11 1.75h3.144a7.132 7.132 0 00.22-1.75c0-.6-.083-1.175-.22-1.75zM3.281 7.75c0-.573.028-1.175.082-1.75H.22A7.482 7.482 0 000 7.75c0 .63.082 1.204.219 1.75h3.144a18.307 18.307 0 01-.082-1.75zm1.067 2.626c.41 2.46 1.34 4.156 2.433 4.156 1.067 0 2.024-1.695 2.407-4.156h-4.84zm4.347 3.883a6.72 6.72 0 004.32-3.883h-2.953c-.218 1.559-.683 2.953-1.367 3.883zM.52 10.375a6.72 6.72 0 004.32 3.883c-.684-.93-1.121-2.324-1.367-3.883H.52z"/>
</svg>
