<svg xmlns="http://www.w3.org/2000/svg" width="14" height="15" fill="none" viewBox="0 0 14 15">
  <path fill="#4C4193" d="M13.59 10.648l-3.063-1.312c-.082-.028-.164-.055-.273-.055a.665.665 0 00-.492.246l-1.367 1.668a10.147 10.147 0 01-4.84-4.84l1.668-1.367c.136-.11.246-.3.246-.52a.798.798 0 00-.055-.246L4.102 1.16a.69.69 0 00-.63-.41c-.027 0-.081.027-.136.027l-2.844.656a.642.642 0 00-.492.63C0 9.09 5.66 14.75 12.688 14.75c.3 0 .546-.192.628-.492l.657-2.844v-.137a.714.714 0 00-.383-.629z"/>
</svg>
