<svg xmlns="http://www.w3.org/2000/svg" width="114" height="114" viewBox="0 0 114 114"><g transform="translate(-876 -2641)"><g transform="translate(0 -260)"><g transform="translate(31 -115)"><g transform="translate(845 3016)" fill="#fff" stroke="#938dbe" stroke-width="2"><circle cx="57" cy="57" r="57" stroke="none"/><circle cx="57" cy="57" r="56" fill="none"/></g></g><g transform="translate(811.106 2838.023)"><path d="M188.472,138.683" transform="translate(-51.818 -29.352)" fill="none" stroke="#3b337b" stroke-linecap="round" stroke-linejoin="round" stroke-width="2"/><path d="M192.483,138.683" transform="translate(-53.97 -29.352)" fill="none" stroke="#3b337b" stroke-linecap="round" stroke-linejoin="round" stroke-width="2"/><path d="M96.613,176.994,93.7,178.571l.557-3.339-2.36-2.365,3.261-.487,1.458-3.038,1.458,3.038,3.261.487-2.36,2.365.557,3.339Z" transform="translate(0 -45.802)" fill="none" stroke="#3b337b" stroke-linecap="round" stroke-linejoin="round" stroke-width="2"/><path d="M123.527,176.994l-2.917,1.576.557-3.339-2.36-2.365,3.261-.487,1.459-3.038,1.458,3.038,3.261.487-2.36,2.365.557,3.339Z" transform="translate(-14.44 -45.802)" fill="none" stroke="#3b337b" stroke-linecap="round" stroke-linejoin="round" stroke-width="2"/><path d="M150.441,176.994l-2.917,1.576.557-3.339-2.36-2.365,3.261-.487,1.458-3.038,1.458,3.038,3.261.487-2.36,2.365.557,3.339Z" transform="translate(-28.881 -45.802)" fill="none" stroke="#3b337b" stroke-linecap="round" stroke-linejoin="round" stroke-width="2"/><path d="M177.356,176.994l-2.917,1.576.557-3.339-2.36-2.365,3.261-.487,1.459-3.038,1.458,3.038,3.261.487-2.36,2.365.557,3.339Z" transform="translate(-43.321 -45.802)" fill="none" stroke="#3b337b" stroke-linecap="round" stroke-linejoin="round" stroke-width="2"/><path d="M204.27,176.994l-2.917,1.576.557-3.339-2.36-2.365,3.261-.487,1.458-3.038,1.458,3.038,3.261.487-2.36,2.365.557,3.339Z" transform="translate(-57.762 -45.802)" fill="none" stroke="#3b337b" stroke-linecap="round" stroke-linejoin="round" stroke-width="2"/><ellipse cx="8.768" cy="9.012" rx="8.768" ry="9.012" transform="translate(112.914 83.977)" fill="none" stroke="#938dbe" stroke-linecap="round" stroke-linejoin="round" stroke-width="2"/><path d="M12.762,0h8.621A12.762,12.762,0,0,1,34.144,12.762v0a0,0,0,0,1,0,0H0a0,0,0,0,1,0,0v0A12.762,12.762,0,0,1,12.762,0Z" transform="translate(104.61 104.99)" fill="none" stroke="#938dbe" stroke-linecap="round" stroke-linejoin="round" stroke-width="2"/><line x2="42.939" transform="translate(100.212 138.966)" fill="none" stroke="#938dbe" stroke-linecap="round" stroke-linejoin="round" stroke-width="2"/><line x2="42.939" transform="translate(100.212 145.484)" fill="none" stroke="#938dbe" stroke-linecap="round" stroke-linejoin="round" stroke-width="2"/><line x2="42.939" transform="translate(100.212 152.003)" fill="none" stroke="#938dbe" stroke-linecap="round" stroke-linejoin="round" stroke-width="2"/></g></g></g></svg>