<svg xmlns="http://www.w3.org/2000/svg" xmlns:xlink="http://www.w3.org/1999/xlink" width="43.636" height="40" viewBox="0 0 43.636 40"><defs><clipPath id="a"><path d="M0,30.572H43.636v-40H0Z" transform="translate(0 9.428)" fill="#938dbe"/></clipPath></defs><g transform="translate(0 9.428)"><g transform="translate(0 -9.428)" clip-path="url(#a)"><path d="M10,23.3H0v3.632H10Zm10-3.64H12.724a1.83,1.83,0,0,0-1.816,1.82v7.268a1.83,1.83,0,0,0,1.816,1.82H20a1.83,1.83,0,0,0,1.816-1.82V21.484A1.83,1.83,0,0,0,20,19.664M24.544,8.756H0v3.632H24.544ZM6.36-5.792H0V-2.16H6.36ZM43.636,23.3H22.728v3.632H43.636ZM16.364-9.428H9.088a1.83,1.83,0,0,0-1.816,1.82V-.34A1.83,1.83,0,0,0,9.088,1.48h7.276A1.83,1.83,0,0,0,18.18-.34V-7.608a1.83,1.83,0,0,0-1.816-1.82M34.548,5.12H27.272a1.829,1.829,0,0,0-1.816,1.816v7.272a1.833,1.833,0,0,0,1.816,1.82h7.276a1.833,1.833,0,0,0,1.816-1.82V6.936A1.829,1.829,0,0,0,34.548,5.12m9.088,3.636h-6.36v3.632h6.36Zm0-14.548H19.092V-2.16H43.636Z" transform="translate(0 9.428)" fill="#938dbe"/></g></g></svg>