<svg xmlns="http://www.w3.org/2000/svg" width="114" height="114" viewBox="0 0 114 114"><g transform="translate(-646 -2641)"><g transform="translate(14 -349)"><g transform="translate(632 2990)" fill="#fff" stroke="#938dbe" stroke-width="2"><circle cx="57" cy="57" r="57" stroke="none"/><circle cx="57" cy="57" r="56" fill="none"/></g></g><g transform="translate(587.781 2581.102)"><path d="M2.389,0h0A2.389,2.389,0,0,1,4.779,2.389V38.115a0,0,0,0,1,0,0H0a0,0,0,0,1,0,0V2.389A2.389,2.389,0,0,1,2.389,0Z" transform="translate(145.858 146.549) rotate(180)" fill="none" stroke="#4c4193" stroke-linecap="round" stroke-linejoin="round" stroke-width="2"/><line x1="2.389" y1="11.907" transform="translate(143.469 96.526)" fill="none" stroke="#4c4193" stroke-linecap="round" stroke-linejoin="round" stroke-width="2"/><line y1="11.907" x2="2.389" transform="translate(141.079 96.526)" fill="none" stroke="#4c4193" stroke-linecap="round" stroke-linejoin="round" stroke-width="2"/><path d="M213.655,212.92" transform="translate(-71.159 -72.795)" fill="none" stroke="#4c4193" stroke-linecap="round" stroke-linejoin="round" stroke-width="2"/><path d="M213.655,138.091" transform="translate(-71.159 -29.657)" fill="none" stroke="#4c4193" stroke-linecap="round" stroke-linejoin="round" stroke-width="2"/><path d="M218.248,212.92" transform="translate(-73.807 -72.795)" fill="none" stroke="#4c4193" stroke-linecap="round" stroke-linejoin="round" stroke-width="2"/><path d="M218.248,138.091" transform="translate(-73.807 -29.657)" fill="none" stroke="#4c4193" stroke-linecap="round" stroke-linejoin="round" stroke-width="2"/><rect width="42.411" height="59.533" rx="4.267" transform="translate(90.218 86.645)" fill="none" stroke="#938dbe" stroke-linecap="round" stroke-linejoin="round" stroke-width="2"/><line x2="26.296" transform="translate(98.276 104.195)" fill="none" stroke="#4c4193" stroke-linecap="round" stroke-linejoin="round" stroke-width="2"/><line x2="26.296" transform="translate(98.276 109.099)" fill="none" stroke="#4c4193" stroke-linecap="round" stroke-linejoin="round" stroke-width="2"/><line x2="26.296" transform="translate(98.276 114.003)" fill="none" stroke="#4c4193" stroke-linecap="round" stroke-linejoin="round" stroke-width="2"/><line x2="26.296" transform="translate(98.276 118.908)" fill="none" stroke="#4c4193" stroke-linecap="round" stroke-linejoin="round" stroke-width="2"/><line x2="26.296" transform="translate(98.276 123.812)" fill="none" stroke="#4c4193" stroke-linecap="round" stroke-linejoin="round" stroke-width="2"/><line x2="26.296" transform="translate(98.276 128.717)" fill="none" stroke="#4c4193" stroke-linecap="round" stroke-linejoin="round" stroke-width="2"/><line x2="26.296" transform="translate(98.276 133.621)" fill="none" stroke="#4c4193" stroke-linecap="round" stroke-linejoin="round" stroke-width="2"/><line x2="26.296" transform="translate(98.276 138.525)" fill="none" stroke="#4c4193" stroke-linecap="round" stroke-linejoin="round" stroke-width="2"/><rect width="31.04" height="5.39" transform="translate(95.904 92.453)" fill="none" stroke="#938dbe" stroke-linecap="round" stroke-linejoin="round" stroke-width="2"/><line x2="4.779" transform="translate(141.079 140.321)" fill="none" stroke="#4c4193" stroke-linecap="round" stroke-linejoin="round" stroke-width="2"/></g></g></svg>