<svg xmlns="http://www.w3.org/2000/svg" xmlns:xlink="http://www.w3.org/1999/xlink" width="43.227" height="60" viewBox="0 0 43.227 60"><defs><clipPath id="a"><path d="M0,41.932H43.227v-60H0Z" transform="translate(0 18.068)" fill="none"/></clipPath></defs><g transform="translate(0 18.068)"><g transform="translate(0 -18.068)" clip-path="url(#a)"><g transform="translate(11.57 39.291)"><path d="M14.038,0V18.052A1.329,1.329,0,0,1,11.777,19q-3.89-3.836-7.784-7.674Q.1,15.159-3.788,19a1.335,1.335,0,0,1-1.448.279,1.33,1.33,0,0,1-.814-1.225V0" transform="translate(6.049)" fill="none" stroke="#938dbe" stroke-linejoin="round" stroke-width="3"/></g><g transform="translate(1.328 1.328)"><path d="M25.271,11.187q.832-1.4,1.66-2.8a3.029,3.029,0,0,0-2.667-4.6l-3.254.037c.017-1.086.037-2.172.053-3.258A3,3,0,0,0,19.5-2.123a2.965,2.965,0,0,0-3.045.02l-2.8,1.674q-.8-1.425-1.6-2.853A2.994,2.994,0,0,0,9.361-4.819a2.959,2.959,0,0,0-2.63,1.564L5.147-.416,2.344-2.09A3,3,0,0,0-.747-2.1,2.983,2.983,0,0,0-2.262.574l.04,3.251-3.258-.05a3.005,3.005,0,0,0-2.69,1.567,2.974,2.974,0,0,0,.02,3.042q.842,1.4,1.677,2.8-1.425.8-2.853,1.6a3.047,3.047,0,0,0-1.564,2.643A3.092,3.092,0,0,0-9.3,18.107q1.41.792,2.819,1.587l-1.66,2.8a3.071,3.071,0,0,0-.053,3.048A3.07,3.07,0,0,0-5.473,27.1c1.086-.013,2.168-.023,3.254-.037q-.025,1.629-.053,3.258A3.006,3.006,0,0,0-.7,33a2.965,2.965,0,0,0,3.045-.02q1.4-.837,2.8-1.677l1.6,2.856A3.018,3.018,0,0,0,9.4,35.724a3.086,3.086,0,0,0,2.66-1.591q.8-1.41,1.587-2.819l2.806,1.66a2.977,2.977,0,0,0,2.331.332c.073-.02.568-.206.634-.239a3.085,3.085,0,0,0,1.634-2.76q-.02-1.624-.04-3.254,1.629.03,3.258.053a3.073,3.073,0,0,0,2.67-4.613q-.837-1.4-1.677-2.8,1.43-.8,2.853-1.6a3.037,3.037,0,0,0,1.564-2.64,3.092,3.092,0,0,0-1.591-2.677Q26.681,11.982,25.271,11.187Z" transform="translate(10.889 4.82)" fill="none" stroke="#938dbe" stroke-linejoin="round" stroke-width="3"/></g></g></g></svg>