<svg xmlns="http://www.w3.org/2000/svg" width="114" height="114" viewBox="0 0 114 114"><g transform="translate(-1106 -2641)"><g transform="translate(34 -425)"><g transform="translate(1072 3066)" fill="#fff" stroke="#938dbe" stroke-width="2"><circle cx="57" cy="57" r="57" stroke="none"/><circle cx="57" cy="57" r="56" fill="none"/></g></g><g transform="translate(1050.449 2584.221)"><path d="M210.825,203.312" transform="translate(-75.966 -69.918)" fill="none" stroke="#938dbe" stroke-linecap="round" stroke-linejoin="round" stroke-width="2"/><path d="M210.825,117.914" transform="translate(-75.966 -18.297)" fill="none" stroke="#938dbe" stroke-linecap="round" stroke-linejoin="round" stroke-width="2"/><path d="M215.244,203.312" transform="translate(-78.638 -69.918)" fill="none" stroke="#938dbe" stroke-linecap="round" stroke-linejoin="round" stroke-width="2"/><path d="M215.244,117.914" transform="translate(-78.638 -18.297)" fill="none" stroke="#938dbe" stroke-linecap="round" stroke-linejoin="round" stroke-width="2"/><rect width="15.701" height="9.498" transform="translate(104.53 87.645)" fill="none" stroke="#938dbe" stroke-linecap="round" stroke-linejoin="round" stroke-width="2"/><rect width="15.701" height="9.498" transform="translate(85.152 87.645)" fill="none" stroke="#938dbe" stroke-linecap="round" stroke-linejoin="round" stroke-width="2"/><path d="M134.144,125.063v-4.557h15.7v4.557" transform="translate(-29.615 -19.864)" fill="none" stroke="#938dbe" stroke-linecap="round" stroke-linejoin="round" stroke-width="2"/><path d="M134.144,198.863v4.5h15.7v-4.5" transform="translate(-29.615 -67.229)" fill="none" stroke="#938dbe" stroke-linecap="round" stroke-linejoin="round" stroke-width="2"/><line x2="15.701" transform="translate(104.53 100.643)" fill="none" stroke="#938dbe" stroke-linecap="round" stroke-linejoin="round" stroke-width="2"/><path d="M99.456,130h-14.3v-9.5h15.7v7.569" transform="translate(0 -19.864)" fill="none" stroke="#938dbe" stroke-linecap="round" stroke-linejoin="round" stroke-width="2"/><rect width="16.926" height="10.238" transform="translate(103.917 113.269)" fill="none" stroke="#938dbe" stroke-linecap="round" stroke-linejoin="round" stroke-width="2"/><path d="M97.763,162.865H85.152v-9.5h12.61" transform="translate(0 -39.728)" fill="none" stroke="#938dbe" stroke-linecap="round" stroke-linejoin="round" stroke-width="2"/><path d="M190.84,162.865h12.654v-9.5H190.84" transform="translate(-63.886 -39.728)" fill="none" stroke="#938dbe" stroke-linecap="round" stroke-linejoin="round" stroke-width="2"/><path d="M100.853,188.082v7.644h-15.7v-9.5h14.3" transform="translate(0 -59.591)" fill="none" stroke="#938dbe" stroke-linecap="round" stroke-linejoin="round" stroke-width="2"/><rect width="15.701" height="9.498" transform="translate(123.907 87.645)" fill="none" stroke="#938dbe" stroke-linecap="round" stroke-linejoin="round" stroke-width="2"/><path d="M183.137,128.147v-7.64h15.7V130h-14.3" transform="translate(-59.229 -19.864)" fill="none" stroke="#938dbe" stroke-linecap="round" stroke-linejoin="round" stroke-width="2"/><line y1="2.741" transform="translate(123.907 133.394)" fill="none" stroke="#938dbe" stroke-linecap="round" stroke-linejoin="round" stroke-width="2"/><line x1="2.756" transform="translate(123.907 136.135)" fill="none" stroke="#938dbe" stroke-linecap="round" stroke-linejoin="round" stroke-width="2"/><line x1="6.019" transform="translate(133.589 136.135)" fill="none" stroke="#938dbe" stroke-linecap="round" stroke-linejoin="round" stroke-width="2"/><path d="M186.669,186.228h14.3v9.5" transform="translate(-61.365 -59.591)" fill="none" stroke="#938dbe" stroke-linecap="round" stroke-linejoin="round" stroke-width="2"/><line x2="9.019" transform="translate(88.493 90.239)" fill="none" stroke="#938dbe" stroke-linecap="round" stroke-linejoin="round" stroke-width="2"/><line x2="9.019" transform="translate(88.493 92.394)" fill="none" stroke="#938dbe" stroke-linecap="round" stroke-linejoin="round" stroke-width="2"/><line x2="9.019" transform="translate(88.493 94.549)" fill="none" stroke="#938dbe" stroke-linecap="round" stroke-linejoin="round" stroke-width="2"/><line x2="9.019" transform="translate(107.871 90.239)" fill="none" stroke="#938dbe" stroke-linecap="round" stroke-linejoin="round" stroke-width="2"/><line x2="9.019" transform="translate(107.871 92.394)" fill="none" stroke="#938dbe" stroke-linecap="round" stroke-linejoin="round" stroke-width="2"/><line x2="9.019" transform="translate(107.871 94.549)" fill="none" stroke="#938dbe" stroke-linecap="round" stroke-linejoin="round" stroke-width="2"/><line x2="9.019" transform="translate(127.248 90.239)" fill="none" stroke="#938dbe" stroke-linecap="round" stroke-linejoin="round" stroke-width="2"/><line x2="9.019" transform="translate(127.248 92.394)" fill="none" stroke="#938dbe" stroke-linecap="round" stroke-linejoin="round" stroke-width="2"/><line x2="9.019" transform="translate(127.248 94.549)" fill="none" stroke="#938dbe" stroke-linecap="round" stroke-linejoin="round" stroke-width="2"/><line x2="9.019" transform="translate(88.493 103.236)" fill="none" stroke="#938dbe" stroke-linecap="round" stroke-linejoin="round" stroke-width="2"/><line x2="9.019" transform="translate(88.493 105.391)" fill="none" stroke="#938dbe" stroke-linecap="round" stroke-linejoin="round" stroke-width="2"/><line x2="9.019" transform="translate(88.493 107.547)" fill="none" stroke="#938dbe" stroke-linecap="round" stroke-linejoin="round" stroke-width="2"/><line x2="9.019" transform="translate(127.248 103.236)" fill="none" stroke="#938dbe" stroke-linecap="round" stroke-linejoin="round" stroke-width="2"/><line x2="9.019" transform="translate(127.248 105.391)" fill="none" stroke="#938dbe" stroke-linecap="round" stroke-linejoin="round" stroke-width="2"/><line x2="9.019" transform="translate(127.248 107.547)" fill="none" stroke="#938dbe" stroke-linecap="round" stroke-linejoin="round" stroke-width="2"/><line x2="8.709" transform="translate(88.493 116.233)" fill="none" stroke="#938dbe" stroke-linecap="round" stroke-linejoin="round" stroke-width="2"/><line x2="8.558" transform="translate(88.493 118.389)" fill="none" stroke="#938dbe" stroke-linecap="round" stroke-linejoin="round" stroke-width="2"/><line x2="8.709" transform="translate(88.493 120.544)" fill="none" stroke="#938dbe" stroke-linecap="round" stroke-linejoin="round" stroke-width="2"/><line x2="8.709" transform="translate(127.558 116.233)" fill="none" stroke="#938dbe" stroke-linecap="round" stroke-linejoin="round" stroke-width="2"/><line x2="8.558" transform="translate(127.709 118.389)" fill="none" stroke="#938dbe" stroke-linecap="round" stroke-linejoin="round" stroke-width="2"/><line x2="8.709" transform="translate(127.558 120.544)" fill="none" stroke="#938dbe" stroke-linecap="round" stroke-linejoin="round" stroke-width="2"/><line x2="2.527" transform="translate(106.929 116.233)" fill="none" stroke="#938dbe" stroke-linecap="round" stroke-linejoin="round" stroke-width="2"/><line x2="2.527" transform="translate(106.929 118.389)" fill="none" stroke="#938dbe" stroke-linecap="round" stroke-linejoin="round" stroke-width="2"/><line x2="2.527" transform="translate(106.929 120.544)" fill="none" stroke="#938dbe" stroke-linecap="round" stroke-linejoin="round" stroke-width="2"/><line x2="9.019" transform="translate(88.493 129.231)" fill="none" stroke="#938dbe" stroke-linecap="round" stroke-linejoin="round" stroke-width="2"/><line x2="9.019" transform="translate(88.493 131.386)" fill="none" stroke="#938dbe" stroke-linecap="round" stroke-linejoin="round" stroke-width="2"/><line x2="9.019" transform="translate(88.493 133.541)" fill="none" stroke="#938dbe" stroke-linecap="round" stroke-linejoin="round" stroke-width="2"/><line x2="9.019" transform="translate(127.248 129.231)" fill="none" stroke="#938dbe" stroke-linecap="round" stroke-linejoin="round" stroke-width="2"/><line x2="7.427" transform="translate(128.84 131.386)" fill="none" stroke="#938dbe" stroke-linecap="round" stroke-linejoin="round" stroke-width="2"/><line x2="5.271" transform="translate(130.996 133.541)" fill="none" stroke="#938dbe" stroke-linecap="round" stroke-linejoin="round" stroke-width="2"/><g transform="translate(97.051 103.059)"><path d="M2.449,0h0A2.449,2.449,0,0,1,4.9,2.449V25.026a0,0,0,0,1,0,0H0a0,0,0,0,1,0,0V2.449A2.449,2.449,0,0,1,2.449,0Z" transform="translate(45.499 42.036) rotate(135)" fill="none" stroke="#4c4193" stroke-linecap="round" stroke-linejoin="round" stroke-width="2"/><circle cx="15.329" cy="15.329" r="15.329" transform="translate(0 0)" fill="none" stroke="#4c4193" stroke-linecap="round" stroke-linejoin="round" stroke-width="2"/><circle cx="12.51" cy="12.51" r="12.51" transform="translate(2.819 2.819)" fill="none" stroke="#4c4193" stroke-linecap="round" stroke-linejoin="round" stroke-width="2"/></g><line x2="2.417" y2="2.155" transform="translate(111.604 118.389)" fill="none" stroke="#4c4193" stroke-linecap="round" stroke-linejoin="round" stroke-width="2"/><line x1="4.833" y2="4.31" transform="translate(114.021 116.233)" fill="none" stroke="#4c4193" stroke-linecap="round" stroke-linejoin="round" stroke-width="2"/></g></g></svg>