<svg xmlns="http://www.w3.org/2000/svg" xmlns:xlink="http://www.w3.org/1999/xlink" version="1.1" style="" xml:space="preserve" width="2291.8889250931907" height="731.6666973961715"><rect id="backgroundrect" width="100%" height="100%" x="0" y="0" fill="none" stroke="none"/>
<style type="text/css">
	.st0{fill:#1474C6;}
	.st1{fill:url(#SVGID_1_);}
	.st2{fill:url(#SVGID_2_);}
	.st3{fill:url(#SVGID_3_);}
	.st4{fill:url(#SVGID_4_);}
	.st5{fill:url(#SVGID_5_);}
	.st6{fill:url(#SVGID_6_);}
	.st7{fill:#44A3DD;}
</style>

<linearGradient id="SVGID_1_" gradientUnits="userSpaceOnUse" x1="1124.203369140625" y1="819.4722290039062" x2="1338.8634033203125" y2="819.4722290039062" gradientTransform="matrix(1 0 0 -1 0 1506)">
	<stop offset="0" style="stop-color:#44A3DD"/>
	<stop offset="0.9894" style="stop-color:#42A1DD"/>
</linearGradient>

<linearGradient id="SVGID_2_" gradientUnits="userSpaceOnUse" x1="1366.8231201171875" y1="819.272216796875" x2="1637.7833251953125" y2="819.272216796875" gradientTransform="matrix(1 0 0 -1 0 1506)">
	<stop offset="0" style="stop-color:#3F9FDD"/>
	<stop offset="0.9894" style="stop-color:#3799DD"/>
</linearGradient>

<linearGradient id="SVGID_3_" gradientUnits="userSpaceOnUse" x1="1679.63330078125" y1="819.4722290039062" x2="1837.9932861328125" y2="819.4722290039062" gradientTransform="matrix(1 0 0 -1 0 1506)">
	<stop offset="0" style="stop-color:#3497DE"/>
	<stop offset="0.9894" style="stop-color:#3296DC"/>
</linearGradient>

<linearGradient id="SVGID_4_" gradientUnits="userSpaceOnUse" x1="1847.3233642578125" y1="819.4722290039062" x2="2119.363525390625" y2="819.4722290039062" gradientTransform="matrix(1 0 0 -1 0 1506)">
	<stop offset="0" style="stop-color:#2C91DC"/>
	<stop offset="0.9894" style="stop-color:#268DDC"/>
</linearGradient>

<linearGradient id="SVGID_5_" gradientUnits="userSpaceOnUse" x1="2150.2333984375" y1="819.4722290039062" x2="2374.693359375" y2="819.4722290039062" gradientTransform="matrix(1 0 0 -1 0 1506)">
	<stop offset="0" style="stop-color:#1F88DC"/>
	<stop offset="0.9894" style="stop-color:#1883DB"/>
</linearGradient>

<linearGradient id="SVGID_6_" gradientUnits="userSpaceOnUse" x1="2437.16357421875" y1="819.4722290039062" x2="2675.423583984375" y2="819.4722290039062" gradientTransform="matrix(1 0 0 -1 0 1506)">
	<stop offset="0" style="stop-color:#1581DB"/>
	<stop offset="0.9894" style="stop-color:#147FDB"/>
</linearGradient>


<g class="currentLayer" style=""><title>Layer 1</title><g id="svg_1" class="">
	<path class="st0" d="M755.2911145019532,624.718916015625 l-19.17,-29.2 h-11.32 v29.2 h-7.05 v-70.01 h21.45 c7.88,0 13.75,1.85 17.63,5.5600000000000005 c3.87,3.71 5.8100000000000005,8.71 5.8100000000000005,15 c0,5.83 -1.6400000000000001,10.46 -4.92,13.9 s-8.03,5.5 -14.25,6.16 l19.76,29.4 H755.2911145019532 zM724.8011145019532,590.258916015625 h13.9 c11.25,0 16.88,-4.87 16.88,-14.6 c0,-9.93 -5.63,-14.9 -16.88,-14.9 h-13.9 V590.258916015625 z" id="svg_2"/>
	<path class="st0" d="M859.961114501953,554.708916015625 v70.01 h-6.95 v-33.17 h-37.94 v33.17 h-7.05 v-70.01 h7.05 v31.08 h37.94 v-31.08 H859.961114501953 z" id="svg_3"/>
	<path class="st0" d="M917.961114501953,560.368916015625 v26.42 h27.31 v5.46 h-27.31 v26.71 h30.29 v5.76 h-37.34 v-70.01 h37.34 v5.66 H917.961114501953 z" id="svg_4"/>
	<path class="st0" d="M1001.1811145019531,554.708916015625 v70.01 h-7.05 v-70.01 H1001.1811145019531 z" id="svg_5"/>
	<path class="st0" d="M1102.471114501953,624.718916015625 h-7.05 l-38.33,-58.49 v58.49 h-7.05 v-69.92 h7.05 l38.33,58.59 v-58.59 h7.05 V624.718916015625 z" id="svg_6"/>
	<path class="st0" d="M1158.381114501953,554.708916015625 v70.01 h-7.05 v-70.01 H1158.381114501953 z" id="svg_7"/>
	<path class="st0" d="M1247.711114501953,615.928916015625 c-1.49,2.81 -3.79,5.1 -6.9,6.85 c-3.11,1.75 -6.99,2.63 -11.620000000000001,2.63 c-4.5,0 -8.51,-0.8300000000000001 -12.02,-2.48 c-3.51,-1.6500000000000001 -6.3100000000000005,-3.92 -8.39,-6.8 c-2.09,-2.88 -3.29,-6.11 -3.63,-9.68 h7.35 c0.26,2.05 1.03,4.11 2.2800000000000002,6.16 c1.26,2.05 3.08,3.7600000000000002 5.46,5.12 c2.38,1.36 5.26,2.04 8.64,2.04 c4.44,0 7.83,-1.19 10.18,-3.58 c2.35,-2.38 3.5300000000000002,-5.4 3.5300000000000002,-9.04 c0,-3.11 -0.78,-5.640000000000001 -2.33,-7.6 c-1.56,-1.9500000000000002 -3.48,-3.46 -5.76,-4.52 c-2.2800000000000002,-1.06 -5.41,-2.22 -9.39,-3.48 c-4.37,-1.3900000000000001 -7.9,-2.73 -10.58,-4.02 c-2.68,-1.29 -4.95,-3.19 -6.8,-5.71 c-1.85,-2.52 -2.7800000000000002,-5.86 -2.7800000000000002,-10.03 c0,-5.3 1.85,-9.6 5.5600000000000005,-12.91 c3.71,-3.31 8.8,-4.97 15.29,-4.97 c6.62,0 11.870000000000001,1.62 15.74,4.87 c3.87,3.25 6.17,7.28 6.9,12.12 h-7.45 c-0.6000000000000001,-2.98 -2.17,-5.63 -4.72,-7.95 c-2.55,-2.3200000000000003 -6.04,-3.48 -10.48,-3.48 c-4.11,0 -7.38,1.06 -9.83,3.18 c-2.45,2.12 -3.67,5.07 -3.67,8.84 c0,2.98 0.7600000000000001,5.4 2.2800000000000002,7.25 c1.52,1.85 3.39,3.2800000000000002 5.61,4.27 c2.22,0.99 5.25,2.12 9.09,3.38 c4.43,1.3900000000000001 8.03,2.75 10.77,4.07 c2.75,1.33 5.08,3.31 7,5.96 c1.92,2.6500000000000004 2.88,6.16 2.88,10.53 C1249.951114501953,610.118916015625 1249.201114501953,613.118916015625 1247.711114501953,615.928916015625 z" id="svg_8"/>
	<path class="st0" d="M1348.0711145019532,560.118916015625 c5.49,4.07 9.37,9.68 11.620000000000001,16.83 h-7.35 c-1.85,-5.03 -4.93,-9.04 -9.24,-12.02 c-4.3,-2.98 -9.63,-4.47 -15.99,-4.47 c-4.83,0 -9.22,1.19 -13.16,3.58 c-3.94,2.38 -7.04,5.79 -9.29,10.23 c-2.25,4.44 -3.38,9.6 -3.38,15.49 c0,5.890000000000001 1.13,11.04 3.38,15.44 c2.25,4.4 5.35,7.8 9.29,10.18 c3.94,2.38 8.33,3.58 13.16,3.58 c6.36,0 11.68,-1.49 15.99,-4.47 c4.3,-2.98 7.38,-6.98 9.24,-12.02 h7.35 c-2.25,7.15 -6.13,12.76 -11.620000000000001,16.83 c-5.5,4.07 -12.45,6.11 -20.86,6.11 c-6.42,0 -12.15,-1.52 -17.18,-4.57 c-5.03,-3.04 -8.94,-7.27 -11.72,-12.66 c-2.7800000000000002,-5.4 -4.17,-11.54 -4.17,-18.42 c0,-6.95 1.3900000000000001,-13.14 4.17,-18.57 c2.7800000000000002,-5.43 6.69,-9.65 11.72,-12.66 c5.03,-3.01 10.76,-4.52 17.18,-4.52 C1335.6211145019531,554.008916015625 1342.5711145019532,556.048916015625 1348.0711145019532,560.118916015625 z" id="svg_9"/>
	<path class="st0" d="M1460.0911145019531,554.708916015625 v70.01 h-6.95 v-33.17 h-37.94 v33.17 h-7.05 v-70.01 h7.05 v31.08 h37.94 v-31.08 H1460.0911145019531 z" id="svg_10"/>
	<path class="st0" d="M1516.1011145019531,560.368916015625 v26.42 h27.31 v5.46 h-27.31 v26.71 h30.29 v5.76 h-37.34 v-70.01 h37.34 v5.66 H1516.1011145019531 z" id="svg_11"/>
	<path class="st0" d="M1689.3911145019533,624.718916015625 l-19.17,-29.2 h-11.32 v29.2 h-7.05 v-70.01 h21.45 c7.88,0 13.75,1.85 17.63,5.5600000000000005 c3.87,3.71 5.8100000000000005,8.71 5.8100000000000005,15 c0,5.83 -1.6400000000000001,10.46 -4.92,13.9 c-3.2800000000000002,3.44 -8.03,5.5 -14.25,6.16 l19.76,29.4 H1689.3911145019533 zM1658.901114501953,590.258916015625 h13.9 c11.25,0 16.88,-4.87 16.88,-14.6 c0,-9.93 -5.63,-14.9 -16.88,-14.9 h-13.9 V590.258916015625 z" id="svg_12"/>
	<path class="st0" d="M1749.171114501953,560.368916015625 v26.42 h27.31 v5.46 h-27.31 v26.71 h30.29 v5.76 h-37.34 v-70.01 h37.34 v5.66 H1749.171114501953 z" id="svg_13"/>
	<path class="st0" d="M1834.381114501953,554.708916015625 v70.01 h-7.05 v-70.01 H1834.381114501953 z" id="svg_14"/>
	<path class="st0" d="M1935.6811145019533,624.718916015625 h-7.05 l-38.33,-58.49 v58.49 h-7.05 v-69.92 h7.05 l38.33,58.59 v-58.59 h7.05 V624.718916015625 z" id="svg_15"/>
	<path class="st0" d="M2036.481114501953,554.708916015625 v70.01 h-6.95 v-33.17 h-37.94 v33.17 h-7.05 v-70.01 h7.05 v31.08 h37.94 v-31.08 H2036.481114501953 z" id="svg_16"/>
	<path class="st0" d="M2092.4911145019532,560.368916015625 v26.42 h27.31 v5.46 h-27.31 v26.71 h30.29 v5.76 h-37.34 v-70.01 h37.34 v5.66 H2092.4911145019532 z" id="svg_17"/>
	<path class="st0" d="M2175.711114501953,554.708916015625 v70.01 h-7.05 v-70.01 H2175.711114501953 z" id="svg_18"/>
	<path class="st0" d="M2265.581114501953,554.708916015625 v5.66 h-19.96 v64.35 h-6.95 v-64.35 h-19.86 v-5.66 H2265.581114501953 z" id="svg_19"/>
</g><path class="st1" d="M830.451114501953,411.748916015625 c-1.82,0.39000000000000007 -5.08,0.39000000000000007 -9.08,0.39000000000000007 h-57.39 v81.16 h-48.67 V217.518916015625 h106.06 c33.05,0 58.48,8.27 76.27,24.82 c17.8,16.55 26.88,39.79 26.88,70.13 c0,21.67 -4.36,39.79 -12.71,55.16 c-8.72,15.37 -21.43,26.79 -37.77,34.28 l55.93,91.4 h-55.57 L830.451114501953,411.748916015625 zM821.3711145019531,365.658916015625 c18.52,0 32.33,-4.33 42.13,-13 c9.81,-8.67 14.53,-21.67 14.53,-38.61 s-4.72,-29.55 -14.53,-37.82 s-23.61,-12.61 -42.13,-12.61 h-57.39 v102.04 H821.3711145019531 z" id="svg_20"/><path class="st2" d="M1211.0911145019531,283.31891601562495 c11.99,21.67 17.8,45.31 17.8,71.7 c0,26.4 -5.8100000000000005,50.04 -17.8,71.71 c-11.99,21.67 -27.97,39 -48.67,51.61 c-20.7,12.61 -43.95,18.91 -69.01,18.91 s-47.94,-6.3 -68.65,-18.91 c-20.7,-12.61 -37.05,-29.94 -49.03,-51.61 c-11.99,-21.67 -17.8,-45.31 -17.8,-71.71 s5.8100000000000005,-50.04 17.8,-71.7 c11.99,-21.67 28.33,-38.61 49.03,-50.82 c20.7,-12.21 43.58,-18.52 68.65,-18.52 c25.06,0 48.31,6.3 69.01,18.52 C1183.1211145019531,244.70891601562505 1199.1011145019531,261.648916015625 1211.0911145019531,283.31891601562495 zM1019.3111145019532,307.34891601562504 c-7.63,14.58 -11.620000000000001,30.34 -11.620000000000001,47.67 c0,17.34 4,33.09 11.99,47.67 c7.63,14.58 18.16,26 31.6,34.28 c13.08,8.27 27.24,12.61 42.86,12.61 c15.25,0 29.42,-4.33 42.5,-12.61 c13.08,-8.27 23.61,-19.7 31.24,-34.28 s11.26,-30.34 11.26,-47.67 c0,-17.33 -3.63,-33.09 -11.26,-47.67 c-7.63,-14.18 -18.16,-25.61 -31.24,-33.88 s-27.24,-12.21 -42.5,-12.21 c-15.620000000000001,0 -29.78,3.94 -43.22,12.21 C1037.471114501953,281.738916015625 1026.941114501953,293.168916015625 1019.3111145019532,307.34891601562504 z" id="svg_21"/><path class="st3" d="M1319.411114501953,217.518916015625 v228.12 h109.69 v47.67 h-158.36 V217.518916015625 H1319.411114501953 z" id="svg_22"/><path class="st4" d="M1635.661114501953,434.998916015625 h-124.22 l-22.52,58.31 h-50.49 l111.5,-275.79 h50.49 l110.05,275.79 h-52.3 L1635.661114501953,434.998916015625 zM1618.221114501953,389.68891601562495 l-44.31,-115.83 l-45.04,115.83 H1618.221114501953 z" id="svg_23"/><path class="st5" d="M1965.8011145019532,217.518916015625 v275.79 h-46.13 l-130.75,-189.9 v189.9 h-47.58 V217.518916015625 h46.13 l131.12,190.29 V217.518916015625 H1965.8011145019532 z" id="svg_24"/><path class="st6" d="M2249.461114501953,284.09891601562504 c11.26,20.88 17.07,44.91 17.07,71.31 s-5.8100000000000005,50.04 -17.07,70.92 c-11.620000000000001,20.88 -27.6,37.43 -47.94,49.25 s-43.58,17.73 -69.37,17.73 h-103.88 V217.518916015625 h105.69 c25.42,0 48.31,5.91 68.28,17.33 C2222.2211145019533,246.67891601562496 2238.2011145019533,263.21891601562504 2249.461114501953,284.09891601562504 zM2206.2411145019532,402.68891601562495 c6.9,-13.79 10.53,-29.15 10.53,-46.88 s-3.63,-33.49 -10.9,-47.67 c-7.26,-13.79 -17.07,-24.82 -29.78,-32.7 c-12.71,-7.49 -27.24,-11.43 -42.86,-11.43 h-56.3 v182.81 h58.11 c15.620000000000001,0 29.42,-3.94 42.13,-11.82 C2189.531114501953,427.508916015625 2199.341114501953,416.47891601562503 2206.2411145019532,402.68891601562495 z" id="svg_25"/><path class="st7" d="M180.8911145019531,662.438916015625 l66.58,-642.56 c1.49,-14.37 22.07,-15.31 24.86,-1.13 L380.71111450195315,570.988916015625 c0.4,2.05 3.34,2.04 3.73,-0.010000000000000002 l105.8,-552.14 c2.87,-14.96 24.58,-14.01 26.14,1.1400000000000001 l66.17,643.69 h1694.7 v56.9 l-1718.29,0.27 c-7.34,0 -13.46,-5.59 -14.14,-12.89 l-47.7,-517.74 c-0.1,-1.05 -1.61,-1.13 -1.8,-0.09000000000000002 l-98.98,528.46 c-3.01,16 -25.92,16.02 -28.96,0.030000000000000006 L266.8611145019531,189.83891601562505 c-0.17,-0.8700000000000001 -1.44,-0.81 -1.52,0.07 l-46.86,518.64 c-0.5900000000000001,6.5600000000000005 -6.1,11.59 -12.69,11.58 l-193.17,-0.25 l0.2,-57.64 C12.821114501953105,662.228916015625 180.08111450195315,662.438916015625 180.8911145019531,662.438916015625 z" id="svg_26"/></g></svg>